# xmcd
#
# Track frame offsets:
#       150
#       10529
#       22344
#       39631
#       54681
#       64269
#       77046
#       92300
#       106719
#       120680
#       132413
#       145921
#       164913
#       180043
#       194276
#       208991
#       222846
#       238764
#       254927
#       266411
#       283013
#       298408
#       315985
#       334524
#       351024
#
# Disc length: 4858 seconds
#
# Revision: 1
# Processed by: cddbd v1.5.2PL0 Copyright (c) Steve Scherf et al.
# Submitted via: FreeDbEdit v0.1
#
DISCID=8012f819
DTITLE=George Strait - 50 Number Ones [CD2]
DYEAR=2004
DGENRE=Country
TTITLE0=Heartland
TTITLE1=Easy Come, Easy Go
TTITLE2=I'd Like to Have This One Back
TTITLE3=The Man in Love With You
TTITLE4=George Strait - the Big One
TTITLE5=You Can't Make a Heart Love Somebody
TTITLE6=Lead On
TTITLE7=Check Yes or No
TTITLE8=I Know She Still Loves Me
TTITLE9=Blue Clear Sky
TTITLE10=Carried Away
TTITLE11=I Can Still Make Cheyenne
TTITLE12=One Night at a Time
TTITLE13=Carrying Your Love With Me
TTITLE14=Today My World Slipped Away
TTITLE15=Round About Way
TTITLE16=I Just Wanna Dance With You
TTITLE17=True
TTITLE18=We Really Shouldn't Be Doing This
TTITLE19=Write This Down
TTITLE20=The Best Day
TTITLE21=Go On
TTITLE22=Run
TTITLE23=Living and Living Well
TTITLE24=She'll Leave You With a Smile
EXTD=YEAR: 2004
EXTT0=
EXTT1=
EXTT2=
EXTT3=
EXTT4=
EXTT5=
EXTT6=
EXTT7=
EXTT8=
EXTT9=
EXTT10=
EXTT11=
EXTT12=
EXTT13=
EXTT14=
EXTT15=
EXTT16=
EXTT17=
EXTT18=
EXTT19=
EXTT20=
EXTT21=
EXTT22=
EXTT23=
EXTT24=
PLAYORDER=
